<svg id="Capa_1" data-name="Capa 1" xmlns="http://www.w3.org/2000/svg" xmlns:xlink="http://www.w3.org/1999/xlink" viewBox="0 0 82.62 52.73"><defs><style>.cls-1{fill:none;}.cls-2{clip-path:url(#clip-path);}.cls-3{fill:url(#Degradado_sin_nombre_49);}.cls-4{clip-path:url(#clip-path-2);}.cls-5{fill:url(#Degradado_sin_nombre_49-2);}.cls-6{clip-path:url(#clip-path-3);}.cls-7{fill:url(#Degradado_sin_nombre_49-3);}.cls-8{clip-path:url(#clip-path-4);}.cls-9{fill:url(#Degradado_sin_nombre_49-4);}</style><clipPath id="clip-path"><path class="cls-1" d="M40.88,41.73a24.41,24.41,0,0,1-2.64-.94c-4.41-1.89-5.68-7.58-5.68-7.58-.16-.52-.35-1.38-.54-2.35-.24-1.24-.48-2.65-.66-3.75l-.49-2.77L30.47,22l-.84-.25a1.36,1.36,0,0,1-.92-1.7l.14-.48a1.37,1.37,0,0,1,1.7-.92l1,.3,2.87.86L61.64,28l2.75.83,1.12.33a1.36,1.36,0,0,1,.92,1.7l-.14.48a1.36,1.36,0,0,1-1.7.92l-.93-.28-5.19,5.66-2.63,2.58s-4.19,4.06-8.91,3.22c0,0-.86-.15-2.09-.48h0ZM35.06,17.33a14.72,14.72,0,0,1,27.78,8.31l-3.24-1A11.41,11.41,0,0,0,38.3,18.3ZM28,8.71,15.54,9l12,.28a26.34,26.34,0,0,0-1.62,2.1l-16,.45,15.41.43A26.36,26.36,0,0,0,24.42,39L0,39.6l25.14.62a26.35,26.35,0,0,0,1.61,2.31L6.7,42.81l20.5.29a26.37,26.37,0,0,0,44.22-5.48l5.6-.17-5.45-.17c.27-.59.52-1.18.75-1.79l10.31-.28L72.5,34.93A26.36,26.36,0,0,0,28,8.71"/></clipPath><linearGradient id="Degradado_sin_nombre_49" x1="-927.59" y1="3423.63" x2="-926.96" y2="3423.63" gradientTransform="matrix(0, -70.59, -70.59, 0, 241725.65, -65423.44)" gradientUnits="userSpaceOnUse"><stop offset="0" stop-color="#00845e"/><stop offset="1" stop-color="#6ab547"/></linearGradient><clipPath id="clip-path-2"><path class="cls-1" d="M37.48,26.34a1.42,1.42,0,0,0-.69,1.32l.52,7.27a1.12,1.12,0,0,0,.82,1h0a1.17,1.17,0,0,0,.88-.08,1,1,0,0,0,.52-.77l.63-7.13a1.73,1.73,0,0,0-1.28-1.75h0a1.81,1.81,0,0,0-.52-.08,1.67,1.67,0,0,0-.88.25"/></clipPath><linearGradient id="Degradado_sin_nombre_49-2" x1="-927.59" y1="3423.63" x2="-926.96" y2="3423.63" gradientTransform="matrix(0, -70.59, -70.59, 0, 241723, -65422.95)" xlink:href="#Degradado_sin_nombre_49"/><clipPath id="clip-path-3"><path class="cls-1" d="M52.39,31.58,49,37.89a1,1,0,0,0,0,.93,1.17,1.17,0,0,0,.69.55h0A1.12,1.12,0,0,0,50.94,39l4.42-5.8a1.42,1.42,0,0,0,.15-1.48,1.73,1.73,0,0,0-1.08-.91h0a1.91,1.91,0,0,0-.55-.08,1.67,1.67,0,0,0-1.49.84"/></clipPath><linearGradient id="Degradado_sin_nombre_49-3" x1="-927.59" y1="3423.74" x2="-926.96" y2="3423.74" gradientTransform="matrix(0, -70.59, -70.59, 0, 241744.22, -65424.95)" xlink:href="#Degradado_sin_nombre_49"/><clipPath id="clip-path-4"><path class="cls-1" d="M45,28.61a2,2,0,0,0-1.11,1.49L43,36a1.47,1.47,0,0,0,1,1.68h0a1.49,1.49,0,0,0,1.76-.86l2.5-5.39a2,2,0,0,0-.1-1.85,2.18,2.18,0,0,0-1.26-1h0l-.24-.07a2.21,2.21,0,0,0-.64-.09,2.18,2.18,0,0,0-1,.22"/></clipPath><linearGradient id="Degradado_sin_nombre_49-4" x1="-927.59" y1="3423.68" x2="-926.96" y2="3423.68" gradientTransform="matrix(0, -70.59, -70.59, 0, 241734.07, -65423.23)" xlink:href="#Degradado_sin_nombre_49"/></defs><title>logofresh</title><g class="cls-2"><rect class="cls-3" x="-2.38" y="-3.91" width="87.37" height="60.54" transform="translate(-2.38 4.16) rotate(-5.6)"/></g><g class="cls-4"><rect class="cls-5" x="36.27" y="25.95" width="4.43" height="10.19" transform="translate(-2.85 3.91) rotate(-5.6)"/></g><g class="cls-6"><rect class="cls-7" x="48.44" y="30.42" width="7.71" height="9.4" transform="translate(-3.18 5.28) rotate(-5.6)"/></g><g class="cls-8"><rect class="cls-9" x="42.39" y="28.13" width="6.54" height="9.97" transform="translate(-3.02 4.62) rotate(-5.6)"/></g></svg>